<svg version="1.1" id="Layer_1" xmlns="http://www.w3.org/2000/svg" xmlns:xlink="http://www.w3.org/1999/xlink" x="0px"
	y="0px" width="100%" viewBox="60 300 600 400" xml:space="preserve">
	<path stroke="current" stroke-width="2" d="
M220.085907,463.083405 
	C241.907883,438.012054 260.896210,411.261597 279.265808,384.047211 
	C280.755646,381.840057 282.204498,379.582306 283.914886,377.552368 
	C286.491821,374.493988 289.961273,373.490295 293.832001,374.209381 
	C299.448151,375.252808 301.589813,379.268616 299.062134,384.556946 
	C296.912476,389.054413 294.420807,393.413025 291.785797,397.649811 
	C273.191010,427.547821 253.429916,456.565826 228.276947,481.510223 
	C224.872910,484.886078 220.590958,487.351990 217.804855,491.375519 
	C235.307266,511.951080 241.537064,537.846436 252.143768,561.586487 
	C259.630188,578.342712 267.277008,594.976379 278.082520,609.922791 
	C282.788361,616.432068 288.139893,622.363892 294.792694,626.984009 
	C302.537994,632.362854 310.675140,633.488464 319.300171,629.163757 
	C321.578003,628.021667 324.043915,626.752319 326.041382,629.402222 
	C328.198822,632.264465 326.127686,634.605347 324.280518,636.404175 
	C319.046753,641.501038 312.471313,643.752380 305.303772,644.239502 
	C290.282410,645.260376 277.638489,639.672363 266.524384,629.995483 
	C251.473557,616.890930 241.890152,599.985962 233.413010,582.315552 
	C223.591827,561.843445 216.966721,540.128418 208.759201,519.028809 
	C206.953461,514.386597 204.656143,509.924530 202.396774,505.475220 
	C201.453903,503.618469 200.478973,501.564301 198.078339,500.900879 
	C196.374146,502.163757 196.428970,504.095856 196.101318,505.835205 
	C190.124634,537.561951 184.143814,569.287903 178.219055,601.024292 
	C176.597427,609.710571 173.945740,612.703674 166.940277,613.288330 
	C155.860489,614.213013 150.682190,609.359619 150.997910,597.640137 
	C151.411636,582.283081 154.263000,567.204468 157.290207,552.202759 
	C165.813644,509.963593 174.680389,467.793488 183.136002,425.540985 
	C185.743713,412.510315 188.558929,399.479645 189.066147,386.091034 
	C189.319672,379.398712 191.708969,377.367645 198.368103,376.875458 
	C209.409454,376.059387 215.500793,381.646057 215.134125,392.814392 
	C214.712173,405.666138 211.732086,418.199768 209.677429,430.837860 
	C207.167404,446.277130 204.266373,461.652740 201.561752,477.060669 
	C201.423904,477.845978 201.543976,478.676575 201.543976,480.895538 
	C208.856155,475.377747 214.245331,469.241760 220.085907,463.083405 
z" />
	<path fill="current"  d="
M429.158325,597.378357 
	C425.580536,598.279175 422.417511,597.755127 419.347656,597.070862 
	C410.154419,595.021729 405.776062,587.620361 408.258118,578.055115 
	C410.431091,569.680847 415.892029,563.375488 422.063141,557.641663 
	C429.041992,551.157349 436.778534,545.641663 444.701355,540.402954 
	C447.365997,538.641052 448.958160,536.524170 449.794037,533.402344 
	C453.583679,519.248413 457.723175,505.176331 457.825928,490.340240 
	C457.832855,489.340576 457.864014,488.338257 457.806427,487.341614 
	C457.682922,485.204407 457.995911,482.733490 455.696655,481.575165 
	C453.305878,480.370697 451.639954,482.277740 449.976074,483.604675 
	C446.431610,486.431427 443.529663,489.874481 440.852997,493.499054 
	C425.623596,514.121399 415.391510,537.144104 408.213837,561.626953 
	C408.026489,562.265930 407.862183,562.911682 407.687012,563.554260 
	C404.587219,574.924072 399.339233,577.964539 387.830414,575.058350 
	C382.830994,573.795959 380.402802,569.858398 381.029541,562.769714 
	C381.893585,552.997864 383.154480,543.260681 384.279053,533.512512 
	C384.559052,531.085327 385.106171,528.669922 384.233551,525.531799 
	C377.126343,529.723206 369.952209,532.603638 362.393616,534.574707 
	C359.999725,535.198975 360.003204,537.989258 359.321014,539.972839 
	C354.518890,553.935852 348.641998,567.271606 337.944946,577.920776 
	C329.726929,586.101990 319.742523,588.750549 308.579254,586.974365 
	C296.129150,584.993408 287.361542,573.382141 286.738129,558.352539 
	C285.661865,532.403870 292.754395,508.996643 308.954468,488.546661 
	C310.438324,486.673492 310.663788,484.718872 310.877869,482.545044 
	C312.789612,463.132904 328.917450,450.157196 346.642578,453.517975 
	C356.092560,455.309784 362.119415,460.816803 365.255127,469.692535 
	C370.081543,483.353851 368.624908,497.283417 366.793060,511.196960 
	C366.252960,515.299500 365.396057,519.360352 364.713623,523.272461 
	C366.422150,524.900085 367.848663,523.840332 369.133484,523.360840 
	C375.308807,521.056335 380.592651,517.310852 385.471649,512.946899 
	C387.578400,511.062592 388.301025,508.566254 388.898163,505.907104 
	C394.915985,479.108307 401.058319,452.334198 409.619843,426.202393 
	C416.733887,404.488770 424.337250,382.962555 437.858368,364.161926 
	C441.695465,358.826599 446.282501,354.293732 452.457825,351.609802 
	C464.346619,346.442657 474.980804,351.966431 476.715790,364.647217 
	C478.030396,374.255371 475.463379,383.546722 472.794037,392.642853 
	C466.226227,415.023743 455.696960,435.608246 443.582581,455.434509 
	C437.148010,465.965210 430.366089,476.249756 422.292267,485.622650 
	C421.298279,486.776642 420.504547,488.012054 420.152374,489.519043 
	C417.935394,499.005890 415.577759,508.465851 414.472321,518.971741 
	C419.088287,511.126617 423.151428,503.894104 427.532349,496.859528 
	C432.836304,488.342834 438.836914,480.357727 447.076904,474.373932 
	C448.686035,473.205383 450.409119,472.150391 452.192322,471.271637 
	C467.650726,463.653595 480.414490,470.715118 482.167542,487.837280 
	C483.004547,496.012604 482.551300,504.131256 480.911987,512.182434 
	C480.585114,513.787781 479.891388,515.380432 481.296906,517.767883 
	C488.780609,512.523315 498.122314,509.918427 502.184448,500.483429 
	C502.710754,499.261017 503.219727,497.995209 503.970062,496.910950 
	C510.297882,487.766846 514.942871,478.086670 518.286438,467.248993 
	C522.958130,452.106323 540.834839,444.754120 555.973816,449.730469 
	C563.062988,452.060760 567.169861,457.302887 569.642395,463.996155 
	C573.416016,474.211456 574.073669,484.794922 572.754028,495.508301 
	C571.766113,503.528656 570.490234,511.513489 569.255737,520.120056 
	C578.704956,518.313599 585.652222,513.463257 591.830627,507.263367 
	C593.239380,505.849701 594.452026,504.240631 595.860413,502.826477 
	C597.726746,500.952606 599.940247,500.390472 602.130310,502.132629 
	C604.512146,504.027344 603.775146,506.234283 602.236877,508.296326 
	C594.478394,518.696350 584.220093,525.629639 571.773560,528.863953 
	C567.087769,530.081604 564.869629,532.314392 563.392822,536.708618 
	C558.581543,551.024292 552.394043,564.630249 540.856567,575.022095 
	C530.959290,583.936646 519.395569,586.031860 507.401825,581.034485 
	C496.104950,576.327454 491.798096,566.076721 490.846863,554.467712 
	C489.945526,543.467957 491.131104,532.567566 493.396393,521.516541 
	C485.774323,526.416077 476.448700,528.111267 473.551147,539.391968 
	C469.047668,556.924683 460.818726,573.000000 448.283386,586.483826 
	C443.158875,591.996033 437.008301,595.788269 429.158325,597.378357 
M539.793762,460.191650 
	C536.577759,462.748199 534.493408,466.104034 532.910034,469.833832 
	C532.076538,471.797089 532.288208,473.153931 534.331238,474.388824 
	C540.907227,478.363739 540.861694,478.439117 537.569641,485.246185 
	C531.688538,497.406891 539.151611,515.560486 551.860718,520.170593 
	C554.979248,521.301819 557.060669,520.792053 557.806091,517.281250 
	C558.668335,513.220276 559.734863,509.190186 560.354675,505.092529 
	C562.222290,492.745300 563.906128,480.360382 559.939331,468.080627 
	C556.542419,457.564941 550.221497,454.909210 539.793762,460.191650 
M356.228363,505.820740 
	C358.003662,494.368591 358.521698,482.936981 354.842072,471.740143 
	C351.818024,462.538300 343.457275,459.793610 335.332336,465.048279 
	C331.770325,467.351898 330.101654,470.960571 328.300049,474.536377 
	C327.077850,476.962128 327.586334,478.337585 330.143951,479.603455 
	C336.422363,482.710693 336.629211,483.007965 333.019958,489.080994 
	C325.847595,501.149506 335.226379,520.716492 346.791656,524.647949 
	C350.357239,525.860046 352.578857,525.433777 353.307983,521.389648 
	C354.192352,516.484497 355.136597,511.590240 356.228363,505.820740 
M518.637085,531.160950 
	C517.067200,541.004333 515.358276,550.847961 517.291809,560.841980 
	C518.113953,565.091675 518.721008,569.858887 523.422302,571.505188 
	C528.499329,573.283142 532.304810,570.160522 535.645081,566.690735 
	C536.563232,565.737000 537.372803,564.672607 538.178833,563.618164 
	C545.133667,554.519958 549.442810,544.107727 553.151001,533.399536 
	C553.427551,532.600769 553.577759,531.793945 552.686584,530.577881 
	C541.372437,528.777405 531.865173,522.883240 524.196899,513.130371 
	C521.287048,519.084167 520.167542,524.740845 518.637085,531.160950 
M327.182892,525.365356 
	C324.710114,523.006470 322.237305,520.647583 319.556183,518.089966 
	C317.003082,523.804810 315.580780,529.464783 314.623840,535.176514 
	C312.729156,546.485352 310.467957,557.876282 314.108215,569.255005 
	C316.752991,577.521851 322.229034,579.031372 328.817383,573.406677 
	C330.573456,571.907471 332.115448,570.099792 333.516357,568.252258 
	C340.232910,559.394409 344.442413,549.248169 348.369263,538.964661 
	C349.416779,536.221375 348.893311,534.785278 345.625946,534.147583 
	C339.030640,532.860413 332.854736,530.400757 327.182892,525.365356 
M458.122528,407.644440 
	C462.246918,397.069946 465.668396,386.284058 467.209595,375.008057 
	C467.789825,370.762726 468.844940,366.265717 465.759003,362.287964 
	C455.178772,368.839905 426.375977,445.867157 428.043884,463.151764 
	C440.093384,445.551910 449.819794,427.427734 458.122528,407.644440 
M433.162933,559.681335 
	C426.496613,565.320984 420.196533,571.247681 417.711121,580.047119 
	C417.204651,581.840332 416.862885,583.790283 418.690765,585.061707 
	C420.361908,586.224060 421.906677,585.022949 423.320953,584.255005 
	C424.473297,583.629211 425.591003,582.809814 426.480743,581.850525 
	C434.041840,573.698792 438.331360,563.776428 442.431732,552.937500 
	C438.702667,554.843811 436.195343,557.022766 433.162933,559.681335 
z" />
</svg>